<?xml version="1.0" encoding="utf-8"?>
<!-- Generator: Adobe Illustrator 16.0.0, SVG Export Plug-In . SVG Version: 6.00 Build 0)  -->
<!DOCTYPE svg PUBLIC "-//W3C//DTD SVG 1.1//EN" "http://www.w3.org/Graphics/SVG/1.1/DTD/svg11.dtd">
<svg version="1.1" id="Capa_1" xmlns="http://www.w3.org/2000/svg" xmlns:xlink="http://www.w3.org/1999/xlink" x="0px" y="0px"
	 width="18px" height="17px" viewBox="0 0 18 17" enable-background="new 0 0 18 17" xml:space="preserve">
<title>icon-twitter</title>
<desc>Created with Sketch.</desc>
<g id="GIFOS">
	<g id="_x30_0-UI-Kit" transform="translate(-1057.000000, -2780.000000)">
		<g id="Footer" transform="translate(328.000000, 1736.000000)">
			<g id="icon-twitter" transform="translate(728.000000, 1042.000000)">
				<rect id="Rectangle-Copy-9" fill="none" width="20" height="20"/>
				<path fill="#CDD6E0" d="M18.502,2.3c-0.714,0.469-1.503,0.808-2.346,0.992C15.484,2.496,14.524,2,13.461,2
					c-2.039,0-3.69,1.832-3.69,4.09c0,0.321,0.03,0.633,0.094,0.932C6.796,6.851,4.075,5.224,2.253,2.748
					c-0.318,0.606-0.5,1.309-0.5,2.058c0,1.418,0.652,2.67,1.643,3.405C2.791,8.189,2.222,8.003,1.723,7.699v0.05
					c0,1.982,1.272,3.635,2.963,4.01c-0.311,0.096-0.636,0.145-0.974,0.145c-0.237,0-0.47-0.025-0.694-0.073
					c0.469,1.624,1.833,2.809,3.45,2.841c-1.265,1.098-2.857,1.75-4.586,1.75c-0.298,0-0.593-0.018-0.881-0.057
					c1.635,1.16,3.575,1.838,5.661,1.838c6.793,0,10.506-6.232,10.506-11.638c0-0.178-0.002-0.355-0.009-0.529
					C17.879,5.459,18.507,4.738,19,3.918c-0.662,0.325-1.375,0.545-2.121,0.644C17.643,4.056,18.228,3.254,18.502,2.3z"/>
				<rect id="Rectangle-Copy-10" fill="none" width="20" height="20"/>
			</g>
		</g>
	</g>
</g>
</svg>
